<?xml version="1.0" encoding="UTF-8" standalone="no"?><!-- Generator: Gravit.io --><svg xmlns="http://www.w3.org/2000/svg" xmlns:xlink="http://www.w3.org/1999/xlink" style="isolation:isolate" viewBox="0 0 18 17" width="18pt" height="17pt"><defs><clipPath id="_clipPath_bpgogtkG9P11AVLRFKXCxEUNHbQmmAiF"><rect width="18" height="17"/></clipPath></defs><g clip-path="url(#_clipPath_bpgogtkG9P11AVLRFKXCxEUNHbQmmAiF)"><clipPath id="_clipPath_aUEbKoyuGDcFRYsQdwAqdPrqYgJr8FEA"><rect x="0" y="0" width="18" height="17" transform="matrix(1,0,0,1,0,0)" fill="rgb(255,255,255)"/></clipPath><g clip-path="url(#_clipPath_aUEbKoyuGDcFRYsQdwAqdPrqYgJr8FEA)"><g><path d=" M 8.636 0 C 3.89 0 0 3.811 0 8.421 C 0 13.004 3.854 16.776 8.636 16.776 C 13.413 16.776 17.273 13.01 17.273 8.421 C 17.273 3.811 13.383 0 8.636 0 Z  M 10.155 15.646 C 9.669 15.744 9.153 15.793 8.636 15.793 C 8.12 15.793 7.604 15.744 7.118 15.646 L 7.118 13.345 C 7.118 12.795 7.27 12.598 7.472 12.333 C 7.576 12.219 7.638 12.116 8.1 11.439 L 7.321 11.321 C 5.317 11.036 4.527 10.023 4.214 9.237 C 3.809 8.185 4.021 6.868 4.75 6.032 C 4.861 5.904 4.952 5.688 4.872 5.462 C 4.72 5.01 4.74 4.292 4.841 4.017 C 5.378 4.091 5.929 4.465 6.39 4.735 C 6.602 4.855 6.713 4.823 6.815 4.833 C 7.184 4.758 7.761 4.577 8.647 4.577 C 9.193 4.577 9.77 4.656 10.337 4.813 C 10.438 4.811 10.601 4.895 10.883 4.735 C 11.364 4.45 11.897 4.089 12.432 4.017 C 12.533 4.292 12.553 5.01 12.401 5.462 C 12.32 5.688 12.411 5.904 12.523 6.032 C 13.251 6.868 13.464 8.185 13.059 9.237 C 12.745 10.023 11.956 11.036 9.952 11.321 L 9.173 11.439 C 9.651 12.139 9.701 12.223 9.8 12.333 C 10.003 12.598 10.155 12.795 10.155 13.345 L 10.155 15.646 L 10.155 15.646 L 10.155 15.646 Z  M 11.167 15.361 L 11.167 13.345 C 11.167 12.785 11.045 12.412 10.883 12.136 C 12.422 11.733 13.515 10.849 14 9.581 C 14.517 8.244 14.284 6.651 13.423 5.55 C 13.575 4.892 13.575 3.84 13.211 3.349 C 13.049 3.132 12.826 3.014 12.543 3.014 C 12.533 3.014 12.533 3.014 12.533 3.014 C 11.748 3.056 11.13 3.439 10.468 3.83 C 9.861 3.673 9.244 3.594 8.626 3.594 C 7.999 3.594 7.371 3.683 6.815 3.83 C 6.118 3.422 5.506 3.055 4.699 3.014 C 4.446 3.014 4.224 3.132 4.062 3.349 C 3.697 3.84 3.697 4.892 3.849 5.55 C 2.989 6.651 2.756 8.254 3.272 9.581 C 3.758 10.849 4.851 11.733 6.39 12.136 C 6.264 12.35 6.165 12.625 6.126 12.998 C 5.815 13.102 5.545 13.136 5.295 13.064 C 5.03 12.988 4.824 12.817 4.645 12.524 C 4.243 11.869 3.559 11.333 2.779 11.403 L 2.868 12.382 C 3.229 12.35 3.589 12.721 3.775 13.027 C 4.083 13.53 4.498 13.86 5.008 14.007 C 5.387 14.115 5.733 14.113 6.106 14.035 L 6.106 15.361 C 3.161 14.358 1.012 11.625 1.012 8.421 C 1.012 4.351 4.446 0.983 8.636 0.983 C 12.826 0.983 16.261 4.351 16.261 8.421 C 16.261 11.625 14.112 14.358 11.167 15.361 Z " fill="rgb(64,27,34)"/></g></g></g></svg>