<?xml version="1.0" standalone="no"?>
<!DOCTYPE svg PUBLIC "-//W3C//DTD SVG 20010904//EN"
 "http://www.w3.org/TR/2001/REC-SVG-20010904/DTD/svg10.dtd">
<svg version="1.0" xmlns="http://www.w3.org/2000/svg"
 width="260.000000pt" height="260.000000pt" viewBox="0 0 260.000000 260.000000"
 preserveAspectRatio="xMidYMid meet">
<metadata>
Created by potrace 1.11, written by Peter Selinger 2001-2013
</metadata>
<g transform="translate(0.000000,260.000000) scale(0.100000,-0.100000)"
fill="#000000" stroke="none">
<path d="M1255 2094 c-249 -61 -363 -195 -353 -415 3 -73 9 -97 36 -152 52
-105 126 -166 329 -270 126 -65 182 -99 209 -129 35 -39 36 -43 32 -99 -5 -72
-30 -103 -102 -124 -102 -31 -244 -11 -427 60 -50 19 -93 35 -95 35 -2 0 -4
-62 -4 -138 l0 -138 33 -13 c175 -70 391 -90 555 -51 94 23 149 48 208 96 160
129 178 410 36 557 -55 58 -131 106 -289 185 -78 40 -158 86 -177 103 -82 71
-64 194 34 233 76 30 211 16 357 -40 37 -13 67 -23 68 -22 8 8 97 229 94 232
-9 8 -150 57 -204 72 -59 16 -297 28 -340 18z"/>
<path d="M316 1629 l-256 -251 0 -47 c0 -55 -2 -51 85 -126 39 -33 72 -62 75
-65 3 -3 75 -65 160 -139 85 -74 165 -143 178 -154 l22 -20 0 80 0 80 -202
168 c-112 92 -204 173 -206 179 -2 10 40 51 310 301 l97 90 1 78 c0 42 -2 77
-4 77 -3 0 -120 -113 -260 -251z"/>
<path d="M2057 1873 c-4 -3 -7 -36 -7 -72 l0 -66 93 -87 c50 -48 145 -136 209
-195 64 -59 116 -113 115 -120 -1 -6 -83 -77 -182 -158 -262 -213 -235 -184
-235 -263 0 -38 3 -72 6 -75 4 -4 41 24 83 61 42 37 94 83 117 102 22 19 102
88 177 153 l137 119 0 58 0 57 -247 240 c-137 133 -251 244 -254 247 -3 3 -9
3 -12 -1z"/>
</g>
</svg>
