<?xml version="1.0" encoding="UTF-8" standalone="no"?><!-- Generator: Gravit.io --><svg xmlns="http://www.w3.org/2000/svg" xmlns:xlink="http://www.w3.org/1999/xlink" style="isolation:isolate" viewBox="0 0 18 18" width="18pt" height="18pt"><defs><clipPath id="_clipPath_h7z4pKoqza1ieJM9Yx5O7W2Qxotktpu6"><rect width="18" height="18"/></clipPath></defs><g clip-path="url(#_clipPath_h7z4pKoqza1ieJM9Yx5O7W2Qxotktpu6)"><clipPath id="_clipPath_5AevhwM797y1Ak4HVBtgJSqRuT5ticiG"><rect x="0" y="0" width="18" height="18" transform="matrix(1,0,0,1,0,0)" fill="rgb(255,255,255)"/></clipPath><g clip-path="url(#_clipPath_5AevhwM797y1Ak4HVBtgJSqRuT5ticiG)"><g><path d=" M 2.53 17.454 L 8.164 17.454 L 8.164 11.49 L 6.14 11.49 L 6.14 9.524 L 8.164 9.524 L 8.164 7.067 C 8.164 5.712 9.299 4.609 10.694 4.609 L 13.224 4.609 L 13.224 6.575 L 11.2 6.575 C 10.642 6.575 10.188 7.016 10.188 7.558 L 10.188 9.524 L 13.133 9.524 L 12.796 11.49 L 10.188 11.49 L 10.188 17.454 L 14.743 17.454 C 16.138 17.454 17.273 16.351 17.273 14.996 L 17.273 3.135 C 17.273 1.78 16.138 0.678 14.743 0.678 L 2.53 0.678 C 1.135 0.678 0 1.78 0 3.135 L 0 14.996 C 0 16.351 1.135 17.454 2.53 17.454 Z  M 1.012 3.135 C 1.012 2.322 1.693 1.661 2.53 1.661 L 14.743 1.661 C 15.58 1.661 16.261 2.322 16.261 3.135 L 16.261 14.996 C 16.261 15.809 15.58 16.471 14.743 16.471 L 11.2 16.471 L 11.2 12.473 L 13.653 12.473 L 14.328 8.541 L 11.2 8.541 L 11.2 7.558 L 14.237 7.558 L 14.237 3.627 L 10.694 3.627 C 8.741 3.627 7.152 5.17 7.152 7.067 L 7.152 8.541 L 5.128 8.541 L 5.128 12.473 L 7.152 12.473 L 7.152 16.471 L 2.53 16.471 C 1.693 16.471 1.012 15.809 1.012 14.996 L 1.012 3.135 L 1.012 3.135 L 1.012 3.135 Z " fill="rgb(64,27,34)"/></g></g></g></svg>