<?xml version="1.0" encoding="UTF-8" standalone="no"?><!-- Generator: Gravit.io --><svg xmlns="http://www.w3.org/2000/svg" xmlns:xlink="http://www.w3.org/1999/xlink" style="isolation:isolate" viewBox="0 0 18 17" width="18pt" height="17pt"><defs><clipPath id="_clipPath_165XFHJdnV7q0pntKmYyjKPxXd8cOjSE"><rect width="18" height="17"/></clipPath></defs><g clip-path="url(#_clipPath_165XFHJdnV7q0pntKmYyjKPxXd8cOjSE)"><clipPath id="_clipPath_FGVIdcW2uk8z0n17EJk75ycvu2et1KPK"><rect x="0" y="0" width="18" height="17" transform="matrix(1,0,0,1,0,0)" fill="rgb(255,255,255)"/></clipPath><g clip-path="url(#_clipPath_FGVIdcW2uk8z0n17EJk75ycvu2et1KPK)"><g><path d=" M 2.53 16.894 L 14.743 16.894 C 16.138 16.894 17.273 15.792 17.273 14.437 L 17.273 2.576 C 17.273 1.221 16.138 0.118 14.743 0.118 L 2.53 0.118 C 1.135 0.118 0 1.221 0 2.576 L 0 14.437 C 0 15.792 1.135 16.894 2.53 16.894 Z  M 1.012 2.576 C 1.012 1.763 1.693 1.101 2.53 1.101 L 14.743 1.101 C 15.58 1.101 16.261 1.763 16.261 2.576 L 16.261 14.437 C 16.261 15.25 15.58 15.911 14.743 15.911 L 2.53 15.911 C 1.693 15.911 1.012 15.25 1.012 14.437 L 1.012 2.576 L 1.012 2.576 L 1.012 2.576 Z " fill="rgb(64,27,34)"/><path d=" M 8.636 12.93 C 11.148 12.93 13.191 10.945 13.191 8.506 C 13.191 6.067 11.148 4.083 8.636 4.083 C 6.125 4.083 4.082 6.067 4.082 8.506 C 4.082 10.945 6.125 12.93 8.636 12.93 Z  M 8.636 5.066 C 10.59 5.066 12.179 6.609 12.179 8.506 C 12.179 10.403 10.59 11.947 8.636 11.947 C 6.683 11.947 5.094 10.403 5.094 8.506 C 5.094 6.609 6.683 5.066 8.636 5.066 Z " fill="rgb(64,27,34)"/><path d=" M 13.409 4.827 C 14.236 4.827 14.909 4.174 14.909 3.371 C 14.909 2.567 14.236 1.914 13.409 1.914 C 12.582 1.914 11.909 2.567 11.909 3.371 C 11.909 4.174 12.582 4.827 13.409 4.827 Z  M 13.409 2.885 C 13.685 2.885 13.909 3.103 13.909 3.371 C 13.909 3.638 13.685 3.856 13.409 3.856 C 13.134 3.856 12.909 3.638 12.909 3.371 C 12.909 3.103 13.134 2.885 13.409 2.885 Z " fill="rgb(64,27,34)"/></g></g></g></svg>