<?xml version="1.0" encoding="UTF-8" standalone="no"?><!-- Generator: Gravit.io --><svg xmlns="http://www.w3.org/2000/svg" xmlns:xlink="http://www.w3.org/1999/xlink" style="isolation:isolate" viewBox="0 0 18 15" width="18pt" height="15pt"><defs><clipPath id="_clipPath_qWKRad5KbS2DZXPrKIUeDSKe21F0CgtI"><rect width="18" height="15"/></clipPath></defs><g clip-path="url(#_clipPath_qWKRad5KbS2DZXPrKIUeDSKe21F0CgtI)"><path d=" M 17.273 2.63 C 16.186 2.678 16.21 2.674 16.087 2.684 L 16.731 0.9 C 16.731 0.9 14.722 1.617 14.213 1.746 C 12.876 0.578 10.888 0.527 9.467 1.375 C 8.303 2.07 7.678 3.263 7.887 4.658 C 5.622 4.352 3.713 3.31 2.207 1.552 L 1.73 0.996 L 1.374 1.631 C 0.924 2.434 0.775 3.351 0.953 4.215 C 1.026 4.569 1.151 4.907 1.323 5.223 L 0.915 5.069 L 0.866 5.733 C 0.817 6.407 1.048 7.193 1.484 7.837 C 1.607 8.018 1.765 8.217 1.966 8.413 L 1.754 8.382 L 2.012 9.142 C 2.351 10.141 3.055 10.914 3.968 11.343 C 3.056 11.719 2.319 11.959 1.108 12.346 L 0 12.7 L 1.023 13.243 C 1.414 13.45 2.792 14.142 4.155 14.35 C 7.183 14.811 10.593 14.435 12.888 12.428 C 14.821 10.737 15.456 8.331 15.324 5.828 C 15.304 5.449 15.411 5.087 15.625 4.809 C 16.054 4.253 17.27 2.633 17.273 2.63 Z  M 14.816 4.221 C 14.46 4.681 14.282 5.27 14.314 5.878 C 14.447 8.403 13.74 10.361 12.211 11.698 C 10.426 13.26 7.547 13.872 4.311 13.38 C 3.726 13.29 3.12 13.091 2.619 12.891 C 3.634 12.552 4.418 12.249 5.685 11.667 L 7.452 10.855 L 5.501 10.733 C 4.566 10.675 3.787 10.235 3.309 9.521 C 3.563 9.506 3.808 9.466 4.052 9.4 L 5.913 8.897 L 4.036 8.45 C 3.124 8.233 2.604 7.703 2.329 7.297 C 2.148 7.03 2.03 6.756 1.959 6.504 C 2.147 6.553 2.366 6.588 2.72 6.622 L 4.457 6.789 L 3.081 5.746 C 2.089 4.995 1.692 3.866 1.983 2.781 C 5.078 5.899 8.713 5.665 9.078 5.747 C 8.998 4.987 8.996 4.986 8.975 4.913 C 8.506 3.305 9.533 2.488 9.996 2.212 C 10.963 1.634 12.499 1.547 13.562 2.498 C 13.792 2.704 14.103 2.784 14.393 2.714 C 14.654 2.651 14.868 2.585 15.078 2.512 L 14.641 3.723 L 15.199 3.723 C 15.094 3.86 14.967 4.024 14.816 4.221 Z " fill="rgb(64,27,34)"/></g></svg>