<?xml version="1.0" encoding="UTF-8" standalone="no"?><!-- Generator: Gravit.io --><svg xmlns="http://www.w3.org/2000/svg" xmlns:xlink="http://www.w3.org/1999/xlink" style="isolation:isolate" viewBox="0 0 30 30" width="30pt" height="30pt"><defs><clipPath id="_clipPath_evOYeKys4FMs4YzsTEeKn7gX8NDpntxV"><rect width="30" height="30"/></clipPath></defs><g clip-path="url(#_clipPath_evOYeKys4FMs4YzsTEeKn7gX8NDpntxV)"><clipPath id="_clipPath_86lJ4W80mJ6xlYtTXpTAWKEoZ08IFcua"><rect x="0" y="0" width="30" height="30" transform="matrix(1,0,0,1,0,0)" fill="rgb(255,255,255)"/></clipPath><g clip-path="url(#_clipPath_86lJ4W80mJ6xlYtTXpTAWKEoZ08IFcua)"><g><rect x="0" y="0" width="30" height="30" transform="matrix(1,0,0,1,0,0)" fill="none"/><path d=" M 19.443 20.076 L 19.443 20.076 L 19.443 20.076 Q 19.443 22.164 17.94 23.367 L 17.94 23.367 L 17.94 23.367 Q 16.437 24.569 13.758 24.569 L 13.758 24.569 L 13.758 24.569 Q 11.29 24.569 9.391 23.641 L 9.391 23.641 L 9.391 20.603 L 9.391 20.603 Q 10.952 21.299 12.033 21.584 L 12.033 21.584 L 12.033 21.584 Q 13.114 21.869 14.011 21.869 L 14.011 21.869 L 14.011 21.869 Q 15.087 21.869 15.662 21.458 L 15.662 21.458 L 15.662 21.458 Q 16.236 21.046 16.236 20.234 L 16.236 20.234 L 16.236 20.234 Q 16.236 19.781 15.983 19.427 L 15.983 19.427 L 15.983 19.427 Q 15.73 19.074 15.24 18.747 L 15.24 18.747 L 15.24 18.747 Q 14.749 18.42 13.241 17.703 L 13.241 17.703 L 13.241 17.703 Q 11.828 17.038 11.121 16.427 L 11.121 16.427 L 11.121 16.427 Q 10.414 15.815 9.993 15.003 L 9.993 15.003 L 9.993 15.003 Q 9.571 14.191 9.571 13.104 L 9.571 13.104 L 9.571 13.104 Q 9.571 11.058 10.958 9.888 L 10.958 9.888 L 10.958 9.888 Q 12.345 8.717 14.791 8.717 L 14.791 8.717 L 14.791 8.717 Q 15.994 8.717 17.085 9.002 L 17.085 9.002 L 17.085 9.002 Q 18.177 9.287 19.369 9.803 L 19.369 9.803 L 18.314 12.345 L 18.314 12.345 Q 17.08 11.839 16.273 11.638 L 16.273 11.638 L 16.273 11.638 Q 15.466 11.438 14.686 11.438 L 14.686 11.438 L 14.686 11.438 Q 13.758 11.438 13.262 11.871 L 13.262 11.871 L 13.262 11.871 Q 12.766 12.303 12.766 12.999 L 12.766 12.999 L 12.766 12.999 Q 12.766 13.431 12.967 13.753 L 12.967 13.753 L 12.967 13.753 Q 13.167 14.075 13.605 14.375 L 13.605 14.375 L 13.605 14.375 Q 14.043 14.676 15.677 15.456 L 15.677 15.456 L 15.677 15.456 Q 17.839 16.49 18.641 17.529 L 18.641 17.529 L 18.641 17.529 Q 19.443 18.568 19.443 20.076 Z " fill="rgb(64,27,34)"/><path d=" M 6.24 20.717 L 6.24 22.458 L 0.609 17.591 L 0.609 16.46 L 6.24 10.935 L 6.24 12.654 L 1.658 16.933 L 6.24 20.717 L 6.24 20.717 L 6.24 20.717 Z " fill="rgb(64,27,34)"/><path d=" M 22.209 22.458 L 22.209 20.717 L 26.797 16.956 L 22.209 12.654 L 22.209 10.935 L 27.84 16.46 L 27.84 17.591 L 22.209 22.458 L 22.209 22.458 L 22.209 22.458 Z " fill="rgb(64,27,34)"/></g></g></g></svg>